<?xml version="1.0" encoding="iso-8859-1"?>
<!-- Uploaded to: SVG Repo, www.svgrepo.com, Generator: SVG Repo Mixer Tools -->
<svg height="800px" width="800px" version="1.1" id="Layer_1" xmlns="http://www.w3.org/2000/svg" xmlns:xlink="http://www.w3.org/1999/xlink" 
	 viewBox="0 0 512 512" xml:space="preserve">
<g transform="translate(1 1)">
	<path style="fill:#E2E3E5;" d="M447.853,502.467H275.48c-9.387,0-16.213-7.68-16.213-16.213V23.747
		c0-8.533,7.68-16.213,16.213-16.213h172.373c8.533,0,16.213,7.68,16.213,16.213v462.507
		C464.067,494.787,456.387,502.467,447.853,502.467"/>
	<path style="fill:#CCCCCC;" d="M422.253,502.467H249.88c-9.387,0-16.213-7.68-16.213-16.213V23.747
		c0-8.533,7.68-16.213,16.213-16.213h172.373c8.533,0,16.213,7.68,16.213,16.213v462.507
		C438.467,494.787,430.787,502.467,422.253,502.467"/>
	<path style="fill:#FFFFFF;" d="M243.053,502.467H70.68c-8.533,0-16.213-7.68-16.213-16.213V23.747
		c0-8.533,7.68-16.213,16.213-16.213h172.373c8.533,0,16.213,7.68,16.213,16.213v462.507
		C259.267,494.787,251.587,502.467,243.053,502.467"/>
	<path style="fill:#E2E3E5;" d="M396.653,502.467H96.28c-8.533,0-16.213-7.68-16.213-16.213V23.747
		c0-8.533,7.68-16.213,16.213-16.213h300.373c8.533,0,16.213,7.68,16.213,16.213v462.507
		C412.867,494.787,405.187,502.467,396.653,502.467"/>
	<polygon style="fill:#E0E0E0;" points="97.133,118.467 395.8,118.467 395.8,50.2 97.133,50.2 	"/>
	<polygon style="fill:#F0F0F0;" points="97.133,118.467 370.2,118.467 370.2,50.2 97.133,50.2 	"/>
	<g>
		<polygon style="fill:#E0E0E0;" points="97.133,459.8 173.933,459.8 173.933,383 97.133,383 		"/>
		<polygon style="fill:#E0E0E0;" points="208.067,459.8 284.867,459.8 284.867,383 208.067,383 		"/>
		<polygon style="fill:#E0E0E0;" points="319,459.8 395.8,459.8 395.8,272.067 319,272.067 		"/>
	</g>
	<polygon style="fill:#F0F0F0;" points="319,459.8 370.2,459.8 370.2,272.067 319,272.067 	"/>
	<g>
		<polygon style="fill:#E0E0E0;" points="97.133,348.867 173.933,348.867 173.933,272.067 97.133,272.067 		"/>
		<polygon style="fill:#E0E0E0;" points="208.067,348.867 284.867,348.867 284.867,272.067 208.067,272.067 		"/>
		<polygon style="fill:#E0E0E0;" points="97.133,237.933 173.933,237.933 173.933,161.133 97.133,161.133 		"/>
		<polygon style="fill:#E0E0E0;" points="208.067,237.933 284.867,237.933 284.867,161.133 208.067,161.133 		"/>
		<polygon style="fill:#E0E0E0;" points="319,237.933 395.8,237.933 395.8,161.133 319,161.133 		"/>
	</g>
	<g>
		<polygon style="fill:#F0F0F0;" points="319,237.933 370.2,237.933 370.2,161.133 319,161.133 		"/>
		<polygon style="fill:#F0F0F0;" points="208.067,237.933 259.267,237.933 259.267,161.133 208.067,161.133 		"/>
		<polygon style="fill:#F0F0F0;" points="208.067,348.867 259.267,348.867 259.267,272.067 208.067,272.067 		"/>
		<polygon style="fill:#F0F0F0;" points="208.067,459.8 259.267,459.8 259.267,383 208.067,383 		"/>
		<polygon style="fill:#F0F0F0;" points="97.133,237.933 148.333,237.933 148.333,161.133 97.133,161.133 		"/>
		<polygon style="fill:#F0F0F0;" points="97.133,348.867 148.333,348.867 148.333,272.067 97.133,272.067 		"/>
		<polygon style="fill:#F0F0F0;" points="97.133,459.8 148.333,459.8 148.333,383 97.133,383 		"/>
	</g>
	<g>
		<path style="fill:#B6B6B6;" d="M422.253,511H70.68c-13.653,0-24.747-11.093-24.747-24.747V23.747C45.933,10.093,57.027-1,70.68-1
			h351.573C435.907-1,447,10.093,447,23.747v462.507C447,499.907,435.907,511,422.253,511z M70.68,16.067
			c-4.267,0-7.68,3.413-7.68,7.68v462.507c0,4.267,3.413,7.68,7.68,7.68h351.573c4.267,0,7.68-3.413,7.68-7.68V23.747
			c0-4.267-3.413-7.68-7.68-7.68H70.68z"/>
		<path style="fill:#B6B6B6;" d="M173.933,468.333h-76.8c-5.12,0-8.533-3.413-8.533-8.533V383c0-5.12,3.413-8.533,8.533-8.533h76.8
			c5.12,0,8.533,3.413,8.533,8.533v76.8C182.467,464.92,179.053,468.333,173.933,468.333z M105.667,451.267H165.4v-59.733h-59.733
			V451.267z"/>
		<path style="fill:#B6B6B6;" d="M284.867,468.333h-76.8c-5.12,0-8.533-3.413-8.533-8.533V383c0-5.12,3.413-8.533,8.533-8.533h76.8
			c5.12,0,8.533,3.413,8.533,8.533v76.8C293.4,464.92,289.987,468.333,284.867,468.333z M216.6,451.267h59.733v-59.733H216.6
			V451.267z"/>
		<path style="fill:#B6B6B6;" d="M395.8,468.333H319c-5.12,0-8.533-3.413-8.533-8.533V272.067c0-5.12,3.413-8.533,8.533-8.533h76.8
			c5.12,0,8.533,3.413,8.533,8.533V459.8C404.333,464.92,400.92,468.333,395.8,468.333z M327.533,451.267h59.733V280.6h-59.733
			V451.267z"/>
		<path style="fill:#B6B6B6;" d="M173.933,357.4h-76.8c-5.12,0-8.533-3.413-8.533-8.533v-76.8c0-5.12,3.413-8.533,8.533-8.533h76.8
			c5.12,0,8.533,3.413,8.533,8.533v76.8C182.467,353.987,179.053,357.4,173.933,357.4z M105.667,340.333H165.4V280.6h-59.733
			V340.333z"/>
		<path style="fill:#B6B6B6;" d="M284.867,357.4h-76.8c-5.12,0-8.533-3.413-8.533-8.533v-76.8c0-5.12,3.413-8.533,8.533-8.533h76.8
			c5.12,0,8.533,3.413,8.533,8.533v76.8C293.4,353.987,289.987,357.4,284.867,357.4z M216.6,340.333h59.733V280.6H216.6V340.333z"/>
		<path style="fill:#B6B6B6;" d="M173.933,246.467h-76.8c-5.12,0-8.533-3.413-8.533-8.533v-76.8c0-5.12,3.413-8.533,8.533-8.533
			h76.8c5.12,0,8.533,3.413,8.533,8.533v76.8C182.467,243.053,179.053,246.467,173.933,246.467z M105.667,229.4H165.4v-59.733
			h-59.733V229.4z"/>
		<path style="fill:#B6B6B6;" d="M284.867,246.467h-76.8c-5.12,0-8.533-3.413-8.533-8.533v-76.8c0-5.12,3.413-8.533,8.533-8.533
			h76.8c5.12,0,8.533,3.413,8.533,8.533v76.8C293.4,243.053,289.987,246.467,284.867,246.467z M216.6,229.4h59.733v-59.733H216.6
			V229.4z"/>
		<path style="fill:#B6B6B6;" d="M395.8,246.467H319c-5.12,0-8.533-3.413-8.533-8.533v-76.8c0-5.12,3.413-8.533,8.533-8.533h76.8
			c5.12,0,8.533,3.413,8.533,8.533v76.8C404.333,243.053,400.92,246.467,395.8,246.467z M327.533,229.4h59.733v-59.733h-59.733
			V229.4z"/>
		<path style="fill:#B6B6B6;" d="M395.8,127H97.133c-5.12,0-8.533-3.413-8.533-8.533V50.2c0-5.12,3.413-8.533,8.533-8.533H395.8
			c5.12,0,8.533,3.413,8.533,8.533v68.267C404.333,123.587,400.92,127,395.8,127z M105.667,109.933h281.6v-51.2h-281.6V109.933z"/>
	</g>
</g>
</svg>