<?xml version="1.0" encoding="iso-8859-1"?>
<!-- Uploaded to: SVG Repo, www.svgrepo.com, Generator: SVG Repo Mixer Tools -->
<svg fill="#000000" height="800px" width="800px" version="1.1" id="Capa_1" xmlns="http://www.w3.org/2000/svg" xmlns:xlink="http://www.w3.org/1999/xlink" 
	 viewBox="0 0 260.342 260.342" xml:space="preserve">
<path color-rendering="auto" image-rendering="auto" shape-rendering="auto" color-interpolation="sRGB" d="M165.27,45.171
	c-1.923-0.025-3.69,1.055-4.545,2.777l-0.027-0.014l-75.82,151.643l-35.365-61.889l-0.023,0.014
	c-0.901-1.586-2.594-2.557-4.418-2.531h-40c-2.761-0.039-5.032,2.168-5.071,4.929s2.168,5.032,4.929,5.071
	c0.047,0.001,0.094,0.001,0.141,0h37.197l38.561,67.481c1.982,3.468,7.029,3.327,8.814-0.246l78.617-157.234h87.01
	c2.761,0.039,5.032-2.168,5.071-4.929s-2.168-5.032-4.929-5.071c-0.047-0.001-0.094-0.001-0.141,0L165.27,45.171L165.27,45.171z
	 M165.117,105.12c-2.762,0.002-4.999,2.242-4.997,5.004c0.001,1.35,0.547,2.642,1.515,3.582l41.463,41.465l-41.463,41.463
	c-1.975,1.93-2.012,5.096-0.082,7.071c1.93,1.975,5.096,2.012,7.071,0.082c0.027-0.027,0.054-0.054,0.081-0.081l41.465-41.465
	l41.465,41.465c1.931,1.975,5.097,2.01,7.071,0.079c1.975-1.931,2.01-5.097,0.079-7.071c-0.026-0.027-0.053-0.054-0.08-0.08
	l-41.463-41.463l41.463-41.465c1.98-1.925,2.025-5.091,0.1-7.071c-0.977-1.005-2.332-1.554-3.733-1.513
	c-1.299,0.038-2.532,0.58-3.438,1.512l-41.465,41.465l-41.465-41.465C167.763,105.666,166.469,105.12,165.117,105.12L165.117,105.12
	z"/>
</svg>